<svg width="14" height="14" viewBox="0 0 14 14" fill="none" xmlns="http://www.w3.org/2000/svg">
<g id="vuesax/outline/info-circle">
<path id="Vector" fill-rule="evenodd" clip-rule="evenodd" d="M0.729004 7.00008C0.729004 3.54092 3.54067 0.729248 6.99984 0.729248C10.459 0.729248 13.2707 3.54092 13.2707 7.00008C13.2707 10.4592 10.459 13.2709 6.99984 13.2709C3.54067 13.2709 0.729004 10.4592 0.729004 7.00008ZM1.604 7.00008C1.604 9.97508 4.02484 12.3959 6.99984 12.3959C9.97484 12.3959 12.3957 9.97508 12.3957 7.00008C12.3957 4.02508 9.97484 1.60425 6.99984 1.60425C4.02484 1.60425 1.604 4.02508 1.604 7.00008Z" fill="#7D7D7D"/>
<path id="Vector_2" d="M6.5625 7.58342V4.66675C6.5625 4.42758 6.76083 4.22925 7 4.22925C7.23917 4.22925 7.4375 4.42758 7.4375 4.66675V7.58342C7.4375 7.82258 7.23917 8.02092 7 8.02092C6.76083 8.02092 6.5625 7.82258 6.5625 7.58342Z" fill="#7D7D7D"/>
<path id="Vector_3" d="M6.77817 9.87001C6.70817 9.84085 6.644 9.80001 6.58567 9.74751C6.53317 9.68918 6.49234 9.63085 6.46317 9.55501C6.434 9.48501 6.4165 9.40918 6.4165 9.33335C6.4165 9.25751 6.434 9.18168 6.46317 9.11168C6.49234 9.04168 6.53317 8.97751 6.58567 8.91918C6.644 8.86668 6.70817 8.82585 6.77817 8.79668C6.91817 8.73835 7.0815 8.73835 7.2215 8.79668C7.2915 8.82585 7.35567 8.86668 7.414 8.91918C7.4665 8.97751 7.50734 9.04168 7.5365 9.11168C7.56567 9.18168 7.58317 9.25751 7.58317 9.33335C7.58317 9.40918 7.56567 9.48501 7.5365 9.55501C7.50734 9.63085 7.4665 9.68918 7.414 9.74751C7.35567 9.80001 7.2915 9.84085 7.2215 9.87001C7.1515 9.89918 7.07567 9.91668 6.99984 9.91668C6.924 9.91668 6.84817 9.89918 6.77817 9.87001Z" fill="#7D7D7D"/>
</g>
</svg>
