<svg width="167" height="133" viewBox="0 0 167 133" fill="none" xmlns="http://www.w3.org/2000/svg">
<g id="Subtract">
<path fill-rule="evenodd" clip-rule="evenodd" d="M166 10C166 5.02944 161.971 1 157 1H10C5.02944 1 1 5.02944 1 10V123C1 127.971 5.02944 132 10 132H131.945C134.332 132 136.621 131.052 138.309 129.364L163.364 104.309C165.052 102.621 166 100.332 166 97.9449V10Z" fill="white" fill-opacity="0.05"/>
<path d="M163.364 104.309L163.057 104.002L163.364 104.309ZM138.309 129.364L138.616 129.671L138.309 129.364ZM10 1.43421H157V0.565787H10V1.43421ZM1.43421 123V10H0.565787V123H1.43421ZM131.945 131.566H10V132.434H131.945V131.566ZM138.616 129.671L163.671 104.616L163.057 104.002L138.002 129.057L138.616 129.671ZM165.566 10V97.9449H166.434V10H165.566ZM163.671 104.616C165.44 102.847 166.434 100.447 166.434 97.9449H165.566C165.566 100.217 164.663 102.395 163.057 104.002L163.671 104.616ZM131.945 132.434C134.447 132.434 136.847 131.44 138.616 129.671L138.002 129.057C136.395 130.663 134.217 131.566 131.945 131.566V132.434ZM0.565787 123C0.565787 128.21 4.78963 132.434 10 132.434V131.566C5.26925 131.566 1.43421 127.731 1.43421 123H0.565787ZM157 1.43421C161.731 1.43421 165.566 5.26925 165.566 10H166.434C166.434 4.78963 162.21 0.565787 157 0.565787V1.43421ZM10 0.565787C4.78963 0.565787 0.565787 4.78963 0.565787 10H1.43421C1.43421 5.26925 5.26925 1.43421 10 1.43421V0.565787Z" fill="#525252"/>
</g>
</svg>
