<svg width="151" height="150" viewBox="0 0 151 150" fill="none" xmlns="http://www.w3.org/2000/svg">
<path d="M140.498 75C140.498 110.899 111.397 140 75.498 140C39.5995 140 10.498 110.899 10.498 75C10.498 39.1015 39.5995 10 75.498 10C111.397 10 140.498 39.1015 140.498 75ZM23.8161 75C23.8161 103.543 46.9549 126.682 75.498 126.682C104.041 126.682 127.18 103.543 127.18 75C127.18 46.4569 104.041 23.3181 75.498 23.3181C46.9549 23.3181 23.8161 46.4569 23.8161 75Z" fill="url(#paint0_linear_1255_4148)" fill-opacity="0.1"/>
<path d="M78.5678 3.76642C78.6581 1.69732 80.4104 0.0835024 82.4724 0.277078C100.28 1.94877 116.952 9.93878 129.429 22.868C142.776 36.6989 150.303 55.1262 150.457 74.3463C150.612 93.5665 143.381 112.112 130.258 126.156C117.99 139.284 101.449 147.54 83.6707 149.498C81.6121 149.725 79.8341 148.139 79.7106 146.072V146.072C79.587 144.004 81.1652 142.239 83.2225 142.001C99.081 140.165 113.823 132.758 124.778 121.035C136.589 108.396 143.097 91.7047 142.958 74.4066C142.819 57.1085 136.044 40.5239 124.032 28.0761C112.89 16.5302 98.0306 9.3608 82.1446 7.78034C80.0837 7.57531 78.4775 5.83552 78.5678 3.76642V3.76642Z" fill="#5968FF"/>
<path d="M72.3126 3.31292C72.2332 1.49459 70.6934 0.0773935 68.8803 0.236528C50.7448 1.82828 33.7629 9.97102 21.1506 23.2034C7.77868 37.2327 0.356887 55.8937 0.441012 75.2747C0.525136 94.6557 8.10865 113.252 21.6018 127.164C34.3285 140.287 51.3805 148.282 69.5291 149.716C71.3436 149.859 72.871 148.429 72.9346 146.61V146.61C72.9982 144.791 71.574 143.273 69.7602 143.122C53.3143 141.752 37.874 134.475 26.3332 122.576C14.0258 109.886 7.10872 92.9238 7.03198 75.2461C6.95525 57.5683 13.7248 40.5472 25.9216 27.7508C37.3587 15.7514 52.7352 8.34063 69.1686 6.82822C70.981 6.66142 72.392 5.13125 72.3126 3.31292V3.31292Z" fill="#FCC93B"/>
<defs>
<linearGradient id="paint0_linear_1255_4148" x1="75.498" y1="10" x2="126.498" y2="116.5" gradientUnits="userSpaceOnUse">
<stop stop-color="white"/>
<stop offset="1" stop-color="white" stop-opacity="0.2"/>
</linearGradient>
</defs>
</svg>
